<svg xmlns="http://www.w3.org/2000/svg" viewBox="0 0 100 100">
    <rect width="100" height="100" fill="#ffffff" />
    <path d="m 42.773437,19.604492 v 14.697266 h 10.449219 v 3.417969 H 42.773437 v 29.003906 q 0,4.345703 1.220704,5.859375 1.269531,1.513672 3.222656,1.513672 1.611328,0 3.125,-0.976563 1.513672,-1.02539 2.34375,-2.978515 h 1.904297 q -1.708985,4.785156 -4.833985,7.226562 -3.125,2.392578 -6.445312,2.392578 -2.246094,0 -4.394531,-1.220703 -2.148438,-1.269531 -3.173829,-3.564453 -1.02539,-2.34375 -1.02539,-7.177734 V 37.719727 h -7.080078 v -1.611329 q 2.685547,-1.074218 5.46875,-3.613281 2.832031,-2.58789 5.029297,-6.103515 1.123046,-1.855469 3.125,-6.78711 z m 24.169922,49.951172 q 2.294922,0 3.857422,1.611328 1.5625,1.5625 1.5625,3.808594 0,2.246094 -1.611328,3.857422 -1.5625,1.5625 -3.808594,1.5625 -2.246093,0 -3.857422,-1.5625 -1.5625,-1.611328 -1.5625,-3.857422 0,-2.294922 1.5625,-3.857422 1.611329,-1.5625 3.857422,-1.5625 z" style="fill:oklch(15.3% 0.006 107.1)" />
</svg>
